<svg xmlns="http://www.w3.org/2000/svg" width="0" height="0" style="position:absolute" aria-hidden="true">
<!-- DX AI Studio 아이콘 한 벌 (spec 2026-09-29 아이콘 체계). 24 격자, 두 층: 옅은 면 (g.f) + 2px 선 (g.l).
     <use> 의 그림자 트리 안은 바깥 CSS 선택자가 닿지 않는다 — 모양은 상속되는 변수로만 바꾼다:
     CSS 변수 ico-fill (면의 불투명도, .24) · ico-fill-o (면 전체, 1) · ico-stroke (선 굵기, 2). 색은 currentColor.
     (XML 주석 안에는 대시 둘을 쓸 수 없어 변수 이름의 앞 대시를 뺐다.)
     모듈 8개는 launcher home 의 glyph 와 같은 모양이다. 계약: tests/shared/test_icon_system.py -->
<defs>
<symbol id="app" viewBox="0 0 24 24"><g class="f" style="fill: currentColor; fill-opacity: var(--ico-fill, .24); opacity: var(--ico-fill-o, 1); stroke: none"><rect x="3" y="4" width="18" height="13" rx="2.5"/></g><g class="l" style="fill: none; stroke: currentColor; stroke-width: var(--ico-stroke, 2); stroke-linecap: round; stroke-linejoin: round"><rect x="3" y="4" width="18" height="13" rx="2.5"/><path d="M10.5 8.2v4.6l4-2.3z"/><path d="M8 20.5h8"/></g></symbol>
<symbol id="stream" viewBox="0 0 24 24"><g class="f" style="fill: currentColor; fill-opacity: var(--ico-fill, .24); opacity: var(--ico-fill-o, 1); stroke: none"><rect x="7.5" y="3.5" width="13" height="10" rx="2"/></g><g class="l" style="fill: none; stroke: currentColor; stroke-width: var(--ico-stroke, 2); stroke-linecap: round; stroke-linejoin: round"><rect x="7.5" y="3.5" width="13" height="10" rx="2"/><path d="M3.5 8v8.5a2 2 0 0 0 2 2H16"/><path d="M12.5 6.6l3.2 1.9-3.2 1.9z"/></g></symbol>
<symbol id="zoo" viewBox="0 0 24 24"><g class="f" style="fill: currentColor; fill-opacity: var(--ico-fill, .24); opacity: var(--ico-fill-o, 1); stroke: none"><rect x="13.5" y="3.5" width="7" height="7" rx="2"/></g><g class="l" style="fill: none; stroke: currentColor; stroke-width: var(--ico-stroke, 2); stroke-linecap: round; stroke-linejoin: round"><rect x="3.5" y="3.5" width="7" height="7" rx="2"/><rect x="13.5" y="3.5" width="7" height="7" rx="2"/><rect x="3.5" y="13.5" width="7" height="7" rx="2"/><rect x="13.5" y="13.5" width="7" height="7" rx="2"/></g></symbol>
<symbol id="compiler" viewBox="0 0 24 24"><g class="f" style="fill: currentColor; fill-opacity: var(--ico-fill, .24); opacity: var(--ico-fill-o, 1); stroke: none"><rect x="6" y="6" width="12" height="12" rx="2.5"/></g><g class="l" style="fill: none; stroke: currentColor; stroke-width: var(--ico-stroke, 2); stroke-linecap: round; stroke-linejoin: round"><rect x="6" y="6" width="12" height="12" rx="2.5"/><path d="M9.5 2.5V6M14.5 2.5V6M9.5 18v3.5M14.5 18v3.5M2.5 9.5H6M2.5 14.5H6M18 9.5h3.5M18 14.5h3.5"/><path d="M12 9v5M9.8 11.8 12 14l2.2-2.2"/></g></symbol>
<symbol id="bench" viewBox="0 0 24 24"><g class="f" style="fill: currentColor; fill-opacity: var(--ico-fill, .24); opacity: var(--ico-fill-o, 1); stroke: none"><path d="M4 16a8 8 0 0 1 16 0z"/></g><g class="l" style="fill: none; stroke: currentColor; stroke-width: var(--ico-stroke, 2); stroke-linecap: round; stroke-linejoin: round"><path d="M4 16a8 8 0 0 1 16 0"/><path d="M12 16l4.2-4.6"/><circle cx="12" cy="16" r="1.4"/><path d="M3 19.5h18"/></g></symbol>
<symbol id="edge" viewBox="0 0 24 24"><g class="f" style="fill: currentColor; fill-opacity: var(--ico-fill, .24); opacity: var(--ico-fill-o, 1); stroke: none"><circle cx="12" cy="12" r="9"/></g><g class="l" style="fill: none; stroke: currentColor; stroke-width: var(--ico-stroke, 2); stroke-linecap: round; stroke-linejoin: round"><circle cx="12" cy="12" r="9"/><path d="M15.6 8.4l-2.3 4.9-4.9 2.3 2.3-4.9z"/></g></symbol>
<symbol id="monitor" viewBox="0 0 24 24"><g class="f" style="fill: currentColor; fill-opacity: var(--ico-fill, .24); opacity: var(--ico-fill-o, 1); stroke: none"><rect x="3" y="4" width="18" height="16" rx="3"/></g><g class="l" style="fill: none; stroke: currentColor; stroke-width: var(--ico-stroke, 2); stroke-linecap: round; stroke-linejoin: round"><rect x="3" y="4" width="18" height="16" rx="3"/><path d="M6 12.5h3l1.8-4 2.6 8 1.8-4H18"/></g></symbol>
<symbol id="agent" viewBox="0 0 24 24"><g class="f" style="fill: currentColor; fill-opacity: var(--ico-fill, .24); opacity: var(--ico-fill-o, 1); stroke: none"><rect x="3" y="5.5" width="18" height="14" rx="3"/></g><g class="l" style="fill: none; stroke: currentColor; stroke-width: var(--ico-stroke, 2); stroke-linecap: round; stroke-linejoin: round"><rect x="3" y="5.5" width="18" height="14" rx="3"/><path d="M7 10.5l2.5 2L7 14.5"/><path d="M12 15h4"/><path d="M18.5 1.8v2.8M17.1 3.2h2.8"/></g></symbol>
<symbol id="library" viewBox="0 0 24 24"><g class="f" style="fill: currentColor; fill-opacity: var(--ico-fill, .24); opacity: var(--ico-fill-o, 1); stroke: none"><rect x="5.2" y="5" width="6.6" height="14.5" rx="1"/></g><g class="l" style="fill: none; stroke: currentColor; stroke-width: var(--ico-stroke, 2); stroke-linecap: round; stroke-linejoin: round"><path d="M6.5 5v14M10.5 5v14"/><path d="M14 5.6l3.4 13"/><path d="M4.5 19.5h15"/></g></symbol>
<symbol id="book" viewBox="0 0 24 24"><g class="f" style="fill: currentColor; fill-opacity: var(--ico-fill, .24); opacity: var(--ico-fill-o, 1); stroke: none"><path d="M12 7.2c-2-1.5-5-1.6-7.5-.6v11.2c2.5-1 5.5-.9 7.5.6 2-1.5 5-1.6 7.5-.6V6.6c-2.5-1-5.5-.9-7.5.6z"/></g><g class="l" style="fill: none; stroke: currentColor; stroke-width: var(--ico-stroke, 2); stroke-linecap: round; stroke-linejoin: round"><path d="M12 7.2c-2-1.5-5-1.6-7.5-.6v11.2c2.5-1 5.5-.9 7.5.6 2-1.5 5-1.6 7.5-.6V6.6c-2.5-1-5.5-.9-7.5.6zM12 7.2v11.2"/></g></symbol>
<symbol id="home" viewBox="0 0 24 24"><g class="f" style="fill: currentColor; fill-opacity: var(--ico-fill, .24); opacity: var(--ico-fill-o, 1); stroke: none"><path d="M4 10.8 12 4l8 6.8v8.7a1.5 1.5 0 0 1-1.5 1.5h-13A1.5 1.5 0 0 1 4 19.5z"/></g><g class="l" style="fill: none; stroke: currentColor; stroke-width: var(--ico-stroke, 2); stroke-linecap: round; stroke-linejoin: round"><path d="M4 10.8 12 4l8 6.8v8.7a1.5 1.5 0 0 1-1.5 1.5h-13A1.5 1.5 0 0 1 4 19.5z"/><path d="M10 21v-5.5h4V21"/></g></symbol>
<symbol id="setup" viewBox="0 0 24 24"><g class="f" style="fill: currentColor; fill-opacity: var(--ico-fill, .24); opacity: var(--ico-fill-o, 1); stroke: none"><circle cx="15" cy="7" r="2.2"/><circle cx="9" cy="12" r="2.2"/><circle cx="16" cy="17" r="2.2"/></g><g class="l" style="fill: none; stroke: currentColor; stroke-width: var(--ico-stroke, 2); stroke-linecap: round; stroke-linejoin: round"><path d="M4 7h8.8M17.2 7H20M4 12h2.8M11.2 12H20M4 17h9.8M18.2 17H20"/><circle cx="15" cy="7" r="2.2"/><circle cx="9" cy="12" r="2.2"/><circle cx="16" cy="17" r="2.2"/></g></symbol>
<symbol id="models" viewBox="0 0 24 24"><g class="f" style="fill: currentColor; fill-opacity: var(--ico-fill, .24); opacity: var(--ico-fill-o, 1); stroke: none"><path d="M12 3l8 4.5v9L12 21l-8-4.5v-9z"/></g><g class="l" style="fill: none; stroke: currentColor; stroke-width: var(--ico-stroke, 2); stroke-linecap: round; stroke-linejoin: round"><path d="M12 3l8 4.5v9L12 21l-8-4.5v-9z"/><path d="M4 7.5l8 4.5 8-4.5M12 12v9"/></g></symbol>
<symbol id="run" viewBox="0 0 24 24"><g class="f" style="fill: currentColor; fill-opacity: var(--ico-fill, .24); opacity: var(--ico-fill-o, 1); stroke: none"><circle cx="12" cy="12" r="9"/></g><g class="l" style="fill: none; stroke: currentColor; stroke-width: var(--ico-stroke, 2); stroke-linecap: round; stroke-linejoin: round"><circle cx="12" cy="12" r="9"/><path d="M10 8.5v7l5.5-3.5z"/></g></symbol>
<symbol id="demo" viewBox="0 0 24 24"><g class="f" style="fill: currentColor; fill-opacity: var(--ico-fill, .24); opacity: var(--ico-fill-o, 1); stroke: none"><rect x="3" y="9" width="18" height="11" rx="2"/></g><g class="l" style="fill: none; stroke: currentColor; stroke-width: var(--ico-stroke, 2); stroke-linecap: round; stroke-linejoin: round"><rect x="3" y="9" width="18" height="11" rx="2"/><path d="M3.5 9 5 4.5h15.5L19 9"/><path d="M9.5 4.5 8 9M15 4.5 13.5 9"/></g></symbol>
<symbol id="compare" viewBox="0 0 24 24"><g class="f" style="fill: currentColor; fill-opacity: var(--ico-fill, .24); opacity: var(--ico-fill-o, 1); stroke: none"><rect x="3" y="4" width="8" height="16" rx="2"/></g><g class="l" style="fill: none; stroke: currentColor; stroke-width: var(--ico-stroke, 2); stroke-linecap: round; stroke-linejoin: round"><rect x="3" y="4" width="8" height="16" rx="2"/><rect x="13" y="4" width="8" height="16" rx="2"/><path d="M15.5 9h3M15.5 12h3M5.5 9h3"/></g></symbol>
<symbol id="download" viewBox="0 0 24 24"><g class="f" style="fill: currentColor; fill-opacity: var(--ico-fill, .24); opacity: var(--ico-fill-o, 1); stroke: none"><path d="M5 15h14v3.5a1.5 1.5 0 0 1-1.5 1.5h-11A1.5 1.5 0 0 1 5 18.5z"/></g><g class="l" style="fill: none; stroke: currentColor; stroke-width: var(--ico-stroke, 2); stroke-linecap: round; stroke-linejoin: round"><path d="M12 4v10M8 10l4 4 4-4"/><path d="M5 15v3.5a1.5 1.5 0 0 0 1.5 1.5h11a1.5 1.5 0 0 0 1.5-1.5V15"/></g></symbol>
<symbol id="upload" viewBox="0 0 24 24"><g class="f" style="fill: currentColor; fill-opacity: var(--ico-fill, .24); opacity: var(--ico-fill-o, 1); stroke: none"><path d="M5 15h14v3.5a1.5 1.5 0 0 1-1.5 1.5h-11A1.5 1.5 0 0 1 5 18.5z"/></g><g class="l" style="fill: none; stroke: currentColor; stroke-width: var(--ico-stroke, 2); stroke-linecap: round; stroke-linejoin: round"><path d="M12 14V4M8 8l4-4 4 4"/><path d="M5 15v3.5a1.5 1.5 0 0 0 1.5 1.5h11a1.5 1.5 0 0 0 1.5-1.5V15"/></g></symbol>
<symbol id="lab" viewBox="0 0 24 24"><g class="f" style="fill: currentColor; fill-opacity: var(--ico-fill, .24); opacity: var(--ico-fill-o, 1); stroke: none"><path d="M7.3 13.5h9.4l2.7 4.1a2 2 0 0 1-1.7 2.9H6.3a2 2 0 0 1-1.7-2.9z"/></g><g class="l" style="fill: none; stroke: currentColor; stroke-width: var(--ico-stroke, 2); stroke-linecap: round; stroke-linejoin: round"><path d="M9.5 3.5v5.2L4.6 17.6A2 2 0 0 0 6.3 20.5h11.4a2 2 0 0 0 1.7-2.9L14.5 8.7V3.5"/><path d="M8.5 3.5h7"/><path d="M7.3 13.5h9.4"/></g></symbol>
<symbol id="folder" viewBox="0 0 24 24"><g class="f" style="fill: currentColor; fill-opacity: var(--ico-fill, .24); opacity: var(--ico-fill-o, 1); stroke: none"><path d="M3 7.5A1.5 1.5 0 0 1 4.5 6h4.8l2 2h8.2A1.5 1.5 0 0 1 21 9.5v8a1.5 1.5 0 0 1-1.5 1.5h-15A1.5 1.5 0 0 1 3 17.5z"/></g><g class="l" style="fill: none; stroke: currentColor; stroke-width: var(--ico-stroke, 2); stroke-linecap: round; stroke-linejoin: round"><path d="M3 7.5A1.5 1.5 0 0 1 4.5 6h4.8l2 2h8.2A1.5 1.5 0 0 1 21 9.5v8a1.5 1.5 0 0 1-1.5 1.5h-15A1.5 1.5 0 0 1 3 17.5z"/></g></symbol>
<symbol id="dev" viewBox="0 0 24 24"><g class="f" style="fill: currentColor; fill-opacity: var(--ico-fill, .24); opacity: var(--ico-fill-o, 1); stroke: none"><rect x="3" y="4" width="18" height="16" rx="3"/></g><g class="l" style="fill: none; stroke: currentColor; stroke-width: var(--ico-stroke, 2); stroke-linecap: round; stroke-linejoin: round"><rect x="3" y="4" width="18" height="16" rx="3"/><path d="M9 9.5 6.5 12 9 14.5M15 9.5l2.5 2.5-2.5 2.5M13 8.5l-2 7"/></g></symbol>
<symbol id="chev" viewBox="0 0 24 24"><g class="l" style="fill: none; stroke: currentColor; stroke-width: var(--ico-stroke, 2); stroke-linecap: round; stroke-linejoin: round"><path d="M9 6l6 6-6 6"/></g></symbol>
<symbol id="chevd" viewBox="0 0 24 24"><g class="l" style="fill: none; stroke: currentColor; stroke-width: var(--ico-stroke, 2); stroke-linecap: round; stroke-linejoin: round"><path d="M6 9l6 6 6-6"/></g></symbol>
<symbol id="dots" viewBox="0 0 24 24"><g class="l" style="fill: none; stroke: currentColor; stroke-width: var(--ico-stroke, 2); stroke-linecap: round; stroke-linejoin: round"><circle cx="6" cy="12" r="0.9"/><circle cx="12" cy="12" r="0.9"/><circle cx="18" cy="12" r="0.9"/></g></symbol>
<symbol id="dashboard" viewBox="0 0 24 24"><g class="f" style="fill: currentColor; fill-opacity: var(--ico-fill, .24); opacity: var(--ico-fill-o, 1); stroke: none"><rect x="3" y="3" width="8" height="10" rx="2"/></g><g class="l" style="fill: none; stroke: currentColor; stroke-width: var(--ico-stroke, 2); stroke-linecap: round; stroke-linejoin: round"><rect x="3" y="3" width="8" height="10" rx="2"/><rect x="13" y="3" width="8" height="6" rx="2"/><rect x="13" y="11" width="8" height="10" rx="2"/><rect x="3" y="15" width="8" height="6" rx="2"/></g></symbol>
<symbol id="puzzle" viewBox="0 0 24 24"><g class="f" style="fill: currentColor; fill-opacity: var(--ico-fill, .24); opacity: var(--ico-fill-o, 1); stroke: none"><path d="M5 5h5a2 2 0 1 1 4 0h5v5a2 2 0 1 1 0 4v5h-5a2 2 0 1 0-4 0H5v-5a2 2 0 1 0 0-4z"/></g><g class="l" style="fill: none; stroke: currentColor; stroke-width: var(--ico-stroke, 2); stroke-linecap: round; stroke-linejoin: round"><path d="M5 5h5a2 2 0 1 1 4 0h5v5a2 2 0 1 1 0 4v5h-5a2 2 0 1 0-4 0H5v-5a2 2 0 1 0 0-4z"/></g></symbol>
<symbol id="wrench" viewBox="0 0 24 24"><g class="f" style="fill: currentColor; fill-opacity: var(--ico-fill, .24); opacity: var(--ico-fill-o, 1); stroke: none"><path d="M15.5 3.5a5 5 0 0 0-4.7 6.6l-6.5 6.5a2 2 0 0 0 2.8 2.8l6.5-6.5a5 5 0 0 0 6.6-4.7L17.4 10.9l-3-.5-.5-3 2.8-2.8a5 5 0 0 0-1.2-.1z"/></g><g class="l" style="fill: none; stroke: currentColor; stroke-width: var(--ico-stroke, 2); stroke-linecap: round; stroke-linejoin: round"><path d="M15.5 3.5a5 5 0 0 0-4.7 6.6l-6.5 6.5a2 2 0 0 0 2.8 2.8l6.5-6.5a5 5 0 0 0 6.6-4.7L17.4 10.9l-3-.5-.5-3 2.8-2.8a5 5 0 0 0-1.2-.1z"/></g></symbol>
<symbol id="globe" viewBox="0 0 24 24"><g class="f" style="fill: currentColor; fill-opacity: var(--ico-fill, .24); opacity: var(--ico-fill-o, 1); stroke: none"><circle cx="12" cy="12" r="9"/></g><g class="l" style="fill: none; stroke: currentColor; stroke-width: var(--ico-stroke, 2); stroke-linecap: round; stroke-linejoin: round"><circle cx="12" cy="12" r="9"/><path d="M3 12h18"/><path d="M12 3c2.5 2.6 3.5 5.6 3.5 9s-1 6.4-3.5 9c-2.5-2.6-3.5-5.6-3.5-9s1-6.4 3.5-9z"/></g></symbol>
<symbol id="theme" viewBox="0 0 24 24"><g class="f" style="fill: currentColor; fill-opacity: var(--ico-fill, .24); opacity: var(--ico-fill-o, 1); stroke: none"><path d="M12 3a9 9 0 0 1 0 18z"/></g><g class="l" style="fill: none; stroke: currentColor; stroke-width: var(--ico-stroke, 2); stroke-linecap: round; stroke-linejoin: round"><circle cx="12" cy="12" r="9"/><path d="M12 3v18"/></g></symbol>
<symbol id="graduation" viewBox="0 0 24 24"><g class="f" style="fill: currentColor; fill-opacity: var(--ico-fill, .24); opacity: var(--ico-fill-o, 1); stroke: none"><path d="M12 5 2.5 9.5 12 14l9.5-4.5z"/></g><g class="l" style="fill: none; stroke: currentColor; stroke-width: var(--ico-stroke, 2); stroke-linecap: round; stroke-linejoin: round"><path d="M12 5 2.5 9.5 12 14l9.5-4.5z"/><path d="M6.5 11.8V16c0 1.4 2.5 3 5.5 3s5.5-1.6 5.5-3v-4.2"/><path d="M21.5 9.5V15"/></g></symbol>
<symbol id="gear" viewBox="0 0 24 24"><g class="f" style="fill: currentColor; fill-opacity: var(--ico-fill, .24); opacity: var(--ico-fill-o, 1); stroke: none"><path d="M12.00 5.00L13.79 2.98L15.52 3.50L15.89 6.18L16.95 7.05L19.65 6.89L20.50 8.48L18.87 10.63L19.00 12.00L21.02 13.79L20.50 15.52L17.82 15.89L16.95 16.95L17.11 19.65L15.52 20.50L13.37 18.87L12.00 19.00L10.21 21.02L8.48 20.50L8.11 17.82L7.05 16.95L4.35 17.11L3.50 15.52L5.13 13.37L5.00 12.00L2.98 10.21L3.50 8.48L6.18 8.11L7.05 7.05L6.89 4.35L8.48 3.50L10.63 5.13z"/></g><g class="l" style="fill: none; stroke: currentColor; stroke-width: var(--ico-stroke, 2); stroke-linecap: round; stroke-linejoin: round"><path d="M12.00 5.00L13.79 2.98L15.52 3.50L15.89 6.18L16.95 7.05L19.65 6.89L20.50 8.48L18.87 10.63L19.00 12.00L21.02 13.79L20.50 15.52L17.82 15.89L16.95 16.95L17.11 19.65L15.52 20.50L13.37 18.87L12.00 19.00L10.21 21.02L8.48 20.50L8.11 17.82L7.05 16.95L4.35 17.11L3.50 15.52L5.13 13.37L5.00 12.00L2.98 10.21L3.50 8.48L6.18 8.11L7.05 7.05L6.89 4.35L8.48 3.50L10.63 5.13z"/><circle cx="12" cy="12" r="3"/></g></symbol>
<symbol id="check" viewBox="0 0 24 24"><g class="l" style="fill: none; stroke: currentColor; stroke-width: var(--ico-stroke, 2); stroke-linecap: round; stroke-linejoin: round"><path d="M5 12.5l4.5 4.5L19 7.5"/></g></symbol>
<symbol id="alert" viewBox="0 0 24 24"><g class="f" style="fill: currentColor; fill-opacity: var(--ico-fill, .24); opacity: var(--ico-fill-o, 1); stroke: none"><path d="M10.3 4.2a2 2 0 0 1 3.4 0l7.6 13.1a2 2 0 0 1-1.7 3H4.4a2 2 0 0 1-1.7-3z"/></g><g class="l" style="fill: none; stroke: currentColor; stroke-width: var(--ico-stroke, 2); stroke-linecap: round; stroke-linejoin: round"><path d="M10.3 4.2a2 2 0 0 1 3.4 0l7.6 13.1a2 2 0 0 1-1.7 3H4.4a2 2 0 0 1-1.7-3z"/><path d="M12 9.5v4.5"/><path d="M12 17.2v.1"/></g></symbol>
<symbol id="x" viewBox="0 0 24 24"><g class="l" style="fill: none; stroke: currentColor; stroke-width: var(--ico-stroke, 2); stroke-linecap: round; stroke-linejoin: round"><path d="M6 6l12 12M18 6 6 18"/></g></symbol>
<symbol id="info" viewBox="0 0 24 24"><g class="f" style="fill: currentColor; fill-opacity: var(--ico-fill, .24); opacity: var(--ico-fill-o, 1); stroke: none"><circle cx="12" cy="12" r="9"/></g><g class="l" style="fill: none; stroke: currentColor; stroke-width: var(--ico-stroke, 2); stroke-linecap: round; stroke-linejoin: round"><circle cx="12" cy="12" r="9"/><path d="M12 11v5.5"/><path d="M12 7.8v.1"/></g></symbol>
<symbol id="spinner" viewBox="0 0 24 24"><g class="l" style="fill: none; stroke: currentColor; stroke-width: var(--ico-stroke, 2); stroke-linecap: round; stroke-linejoin: round"><path d="M12 3a9 9 0 1 0 9 9"/></g></symbol>
<symbol id="lock" viewBox="0 0 24 24"><g class="f" style="fill: currentColor; fill-opacity: var(--ico-fill, .24); opacity: var(--ico-fill-o, 1); stroke: none"><rect x="5" y="10.5" width="14" height="10" rx="2"/></g><g class="l" style="fill: none; stroke: currentColor; stroke-width: var(--ico-stroke, 2); stroke-linecap: round; stroke-linejoin: round"><rect x="5" y="10.5" width="14" height="10" rx="2"/><path d="M8 10.5V7.5a4 4 0 0 1 8 0v3"/><path d="M12 14.5v2"/></g></symbol>
<symbol id="trash" viewBox="0 0 24 24"><g class="f" style="fill: currentColor; fill-opacity: var(--ico-fill, .24); opacity: var(--ico-fill-o, 1); stroke: none"><path d="M6 7h12l-1 12.2A1.8 1.8 0 0 1 15.2 21H8.8A1.8 1.8 0 0 1 7 19.2z"/></g><g class="l" style="fill: none; stroke: currentColor; stroke-width: var(--ico-stroke, 2); stroke-linecap: round; stroke-linejoin: round"><path d="M6 7h12l-1 12.2A1.8 1.8 0 0 1 15.2 21H8.8A1.8 1.8 0 0 1 7 19.2z"/><path d="M4 7h16"/><path d="M9.5 7V4.5h5V7"/><path d="M10 11v6M14 11v6"/></g></symbol>
<symbol id="chat" viewBox="0 0 24 24"><g class="f" style="fill: currentColor; fill-opacity: var(--ico-fill, .24); opacity: var(--ico-fill-o, 1); stroke: none"><path d="M4 5.5A1.5 1.5 0 0 1 5.5 4h13A1.5 1.5 0 0 1 20 5.5v9a1.5 1.5 0 0 1-1.5 1.5H10l-4.5 4v-4A1.5 1.5 0 0 1 4 14.5z"/></g><g class="l" style="fill: none; stroke: currentColor; stroke-width: var(--ico-stroke, 2); stroke-linecap: round; stroke-linejoin: round"><path d="M4 5.5A1.5 1.5 0 0 1 5.5 4h13A1.5 1.5 0 0 1 20 5.5v9a1.5 1.5 0 0 1-1.5 1.5H10l-4.5 4v-4A1.5 1.5 0 0 1 4 14.5z"/><path d="M8 9h8M8 12h5"/></g></symbol>
<symbol id="send" viewBox="0 0 24 24"><g class="l" style="fill: none; stroke: currentColor; stroke-width: var(--ico-stroke, 2); stroke-linecap: round; stroke-linejoin: round"><path d="M4 12 20 4l-4 16-4-7z"/><path d="M12 13l8-9"/></g></symbol>
<symbol id="play" viewBox="0 0 24 24"><g class="f" style="fill: currentColor; fill-opacity: var(--ico-fill, .24); opacity: var(--ico-fill-o, 1); stroke: none"><path d="M8 5.5v13l10-6.5z"/></g><g class="l" style="fill: none; stroke: currentColor; stroke-width: var(--ico-stroke, 2); stroke-linecap: round; stroke-linejoin: round"><path d="M8 5.5v13l10-6.5z"/></g></symbol>
<symbol id="stop" viewBox="0 0 24 24"><g class="f" style="fill: currentColor; fill-opacity: var(--ico-fill, .24); opacity: var(--ico-fill-o, 1); stroke: none"><rect x="6" y="6" width="12" height="12" rx="2"/></g><g class="l" style="fill: none; stroke: currentColor; stroke-width: var(--ico-stroke, 2); stroke-linecap: round; stroke-linejoin: round"><rect x="6" y="6" width="12" height="12" rx="2"/></g></symbol>
<symbol id="refresh" viewBox="0 0 24 24"><g class="l" style="fill: none; stroke: currentColor; stroke-width: var(--ico-stroke, 2); stroke-linecap: round; stroke-linejoin: round"><path d="M20 12a8 8 0 1 1-2.3-5.7"/><path d="M20 4v4.5h-4.5"/></g></symbol>
<symbol id="search" viewBox="0 0 24 24"><g class="l" style="fill: none; stroke: currentColor; stroke-width: var(--ico-stroke, 2); stroke-linecap: round; stroke-linejoin: round"><circle cx="10.5" cy="10.5" r="6.5"/><path d="M15.5 15.5 20 20"/></g></symbol>
<symbol id="image" viewBox="0 0 24 24"><g class="f" style="fill: currentColor; fill-opacity: var(--ico-fill, .24); opacity: var(--ico-fill-o, 1); stroke: none"><rect x="3" y="4.5" width="18" height="15" rx="2.5"/></g><g class="l" style="fill: none; stroke: currentColor; stroke-width: var(--ico-stroke, 2); stroke-linecap: round; stroke-linejoin: round"><rect x="3" y="4.5" width="18" height="15" rx="2.5"/><path d="M3.5 16l5-5 4 4 2.5-2.5 5.5 5.5"/><circle cx="15.5" cy="9" r="1.6"/></g></symbol>
<symbol id="video" viewBox="0 0 24 24"><g class="f" style="fill: currentColor; fill-opacity: var(--ico-fill, .24); opacity: var(--ico-fill-o, 1); stroke: none"><rect x="3" y="6" width="13" height="12" rx="2.5"/></g><g class="l" style="fill: none; stroke: currentColor; stroke-width: var(--ico-stroke, 2); stroke-linecap: round; stroke-linejoin: round"><rect x="3" y="6" width="13" height="12" rx="2.5"/><path d="M16 10.5l5-3v9l-5-3z"/></g></symbol>
<symbol id="camera" viewBox="0 0 24 24"><g class="f" style="fill: currentColor; fill-opacity: var(--ico-fill, .24); opacity: var(--ico-fill-o, 1); stroke: none"><path d="M4 8.5A1.5 1.5 0 0 1 5.5 7h2.3l1.4-2.2h5.6L16.2 7h2.3A1.5 1.5 0 0 1 20 8.5v9a1.5 1.5 0 0 1-1.5 1.5h-13A1.5 1.5 0 0 1 4 17.5z"/></g><g class="l" style="fill: none; stroke: currentColor; stroke-width: var(--ico-stroke, 2); stroke-linecap: round; stroke-linejoin: round"><path d="M4 8.5A1.5 1.5 0 0 1 5.5 7h2.3l1.4-2.2h5.6L16.2 7h2.3A1.5 1.5 0 0 1 20 8.5v9a1.5 1.5 0 0 1-1.5 1.5h-13A1.5 1.5 0 0 1 4 17.5z"/><circle cx="12" cy="13" r="3.5"/></g></symbol>
<symbol id="file" viewBox="0 0 24 24"><g class="f" style="fill: currentColor; fill-opacity: var(--ico-fill, .24); opacity: var(--ico-fill-o, 1); stroke: none"><path d="M13.5 3H7a1.5 1.5 0 0 0-1.5 1.5v15A1.5 1.5 0 0 0 7 21h10a1.5 1.5 0 0 0 1.5-1.5V8z"/></g><g class="l" style="fill: none; stroke: currentColor; stroke-width: var(--ico-stroke, 2); stroke-linecap: round; stroke-linejoin: round"><path d="M13.5 3H7a1.5 1.5 0 0 0-1.5 1.5v15A1.5 1.5 0 0 0 7 21h10a1.5 1.5 0 0 0 1.5-1.5V8z"/><path d="M13.5 3v5h5"/><path d="M9 13h6M9 16.5h6"/></g></symbol>
<symbol id="clipboard" viewBox="0 0 24 24"><g class="f" style="fill: currentColor; fill-opacity: var(--ico-fill, .24); opacity: var(--ico-fill-o, 1); stroke: none"><rect x="5" y="5" width="14" height="16" rx="2"/></g><g class="l" style="fill: none; stroke: currentColor; stroke-width: var(--ico-stroke, 2); stroke-linecap: round; stroke-linejoin: round"><rect x="5" y="5" width="14" height="16" rx="2"/><rect x="9" y="3" width="6" height="4" rx="1"/><path d="M9 11h6M9 15h4"/></g></symbol>
<symbol id="copy" viewBox="0 0 24 24"><g class="f" style="fill: currentColor; fill-opacity: var(--ico-fill, .24); opacity: var(--ico-fill-o, 1); stroke: none"><rect x="8" y="8" width="12" height="12" rx="2"/></g><g class="l" style="fill: none; stroke: currentColor; stroke-width: var(--ico-stroke, 2); stroke-linecap: round; stroke-linejoin: round"><rect x="8" y="8" width="12" height="12" rx="2"/><path d="M16 8V5.5A1.5 1.5 0 0 0 14.5 4h-9A1.5 1.5 0 0 0 4 5.5v9A1.5 1.5 0 0 0 5.5 16H8"/></g></symbol>
<symbol id="eye" viewBox="0 0 24 24"><g class="f" style="fill: currentColor; fill-opacity: var(--ico-fill, .24); opacity: var(--ico-fill-o, 1); stroke: none"><path d="M2.5 12s3.5-6.5 9.5-6.5 9.5 6.5 9.5 6.5-3.5 6.5-9.5 6.5S2.5 12 2.5 12z"/></g><g class="l" style="fill: none; stroke: currentColor; stroke-width: var(--ico-stroke, 2); stroke-linecap: round; stroke-linejoin: round"><path d="M2.5 12s3.5-6.5 9.5-6.5 9.5 6.5 9.5 6.5-3.5 6.5-9.5 6.5S2.5 12 2.5 12z"/><circle cx="12" cy="12" r="3"/></g></symbol>
<symbol id="external" viewBox="0 0 24 24"><g class="l" style="fill: none; stroke: currentColor; stroke-width: var(--ico-stroke, 2); stroke-linecap: round; stroke-linejoin: round"><path d="M14 4h6v6"/><path d="M20 4l-9 9"/><path d="M18 14v4.5a1.5 1.5 0 0 1-1.5 1.5h-11A1.5 1.5 0 0 1 4 18.5v-11A1.5 1.5 0 0 1 5.5 6H10"/></g></symbol>
</defs>
</svg>
